<?xml version="1.0" encoding="UTF-8" standalone="no"?>
<!DOCTYPE svg PUBLIC "-//W3C//DTD SVG 1.1//EN"
 "http://www.w3.org/Graphics/SVG/1.1/DTD/svg11.dtd">
<!-- Generated by graphviz version 14.1.2 (20260124.0452)
 -->
<!-- Title: ServiceRegistry Pages: 1 -->
<svg width="1457pt" height="141pt"
 viewBox="0.00 0.00 1457.00 141.00" xmlns="http://www.w3.org/2000/svg" xmlns:xlink="http://www.w3.org/1999/xlink">
<g id="graph0" class="graph" transform="scale(1 1) rotate(0) translate(4 137)">
<title>ServiceRegistry</title>
<polygon fill="white" stroke="none" points="-4,4 -4,-137 1453,-137 1453,4 -4,4"/>
<!-- v_RegisterService -->
<g id="node1" class="node">
<title>v_RegisterService</title>
<polygon fill="lightblue" stroke="black" points="242,-106 127,-106 127,-70 242,-70 242,-106"/>
<text xml:space="preserve" text-anchor="middle" x="184.5" y="-82.95" font-family="Times,serif" font-size="14.00">v_RegisterService</text>
</g>
<!-- v_BadPayloadException -->
<g id="node2" class="node">
<title>v_BadPayloadException</title>
<polygon fill="lightblue" stroke="black" points="603,-133 453.5,-133 453.5,-97 603,-97 603,-133"/>
<text xml:space="preserve" text-anchor="middle" x="528.25" y="-109.95" font-family="Times,serif" font-size="14.00">v_BadPayloadException</text>
</g>
<!-- v_RegisterService&#45;&gt;v_BadPayloadException -->
<g id="edge1" class="edge">
<title>v_RegisterService&#45;&gt;v_BadPayloadException</title>
<path fill="none" stroke="black" d="M242.22,-102.96C248.19,-104.16 254.2,-105.21 260,-106 320.43,-114.23 389.21,-116.38 441.86,-116.53"/>
<polygon fill="black" stroke="black" points="441.66,-120.03 451.66,-116.53 441.66,-113.03 441.66,-120.03"/>
<text xml:space="preserve" text-anchor="middle" x="347.75" y="-119.68" font-family="Times,serif" font-size="14.00">e_InvaledServiceRegisteryForm</text>
</g>
<!-- v_ValidPayload -->
<g id="node4" class="node">
<title>v_ValidPayload</title>
<polygon fill="lightblue" stroke="black" points="579,-66 477.5,-66 477.5,-30 579,-30 579,-66"/>
<text xml:space="preserve" text-anchor="middle" x="528.25" y="-42.95" font-family="Times,serif" font-size="14.00">v_ValidPayload</text>
</g>
<!-- v_RegisterService&#45;&gt;v_ValidPayload -->
<g id="edge4" class="edge">
<title>v_RegisterService&#45;&gt;v_ValidPayload</title>
<path fill="none" stroke="black" d="M222.96,-69.66C234.56,-64.8 247.57,-60.18 260,-57.5 329.49,-42.54 411.46,-42.08 466.12,-44.12"/>
<polygon fill="black" stroke="black" points="465.7,-47.61 475.84,-44.53 465.99,-40.61 465.7,-47.61"/>
<text xml:space="preserve" text-anchor="middle" x="347.75" y="-60.7" font-family="Times,serif" font-size="14.00">e_validServiceRegisteryForm</text>
</g>
<!-- v_BadPayloadException&#45;&gt;v_RegisterService -->
<g id="edge2" class="edge">
<title>v_BadPayloadException&#45;&gt;v_RegisterService</title>
<path fill="none" stroke="black" d="M479.36,-96.51C465.43,-91.98 450.05,-87.78 435.5,-85.5 374.63,-75.96 304.41,-77.76 253.91,-81.27"/>
<polygon fill="black" stroke="black" points="253.71,-77.78 243.99,-82 254.22,-84.76 253.71,-77.78"/>
<text xml:space="preserve" text-anchor="middle" x="347.75" y="-88.7" font-family="Times,serif" font-size="14.00">e_back_RegisterService</text>
</g>
<!-- v_Start -->
<g id="node3" class="node">
<title>v_Start</title>
<polygon fill="lightblue" stroke="black" points="55,-106 0,-106 0,-70 55,-70 55,-106"/>
<text xml:space="preserve" text-anchor="middle" x="27.5" y="-82.95" font-family="Times,serif" font-size="14.00">v_Start</text>
</g>
<!-- v_Start&#45;&gt;v_RegisterService -->
<g id="edge3" class="edge">
<title>v_Start&#45;&gt;v_RegisterService</title>
<path fill="none" stroke="black" d="M55.5,-88C72.11,-88 94.22,-88 115.37,-88"/>
<polygon fill="black" stroke="black" points="115.14,-91.5 125.14,-88 115.14,-84.5 115.14,-91.5"/>
<text xml:space="preserve" text-anchor="middle" x="91" y="-91.2" font-family="Times,serif" font-size="14.00">e_start</text>
</g>
<!-- v_RegisteredService -->
<g id="node5" class="node">
<title>v_RegisteredService</title>
<polygon fill="lightblue" stroke="black" points="930.25,-120 802.5,-120 802.5,-84 930.25,-84 930.25,-120"/>
<text xml:space="preserve" text-anchor="middle" x="866.38" y="-96.95" font-family="Times,serif" font-size="14.00">v_RegisteredService</text>
</g>
<!-- v_ValidPayload&#45;&gt;v_RegisteredService -->
<g id="edge5" class="edge">
<title>v_ValidPayload&#45;&gt;v_RegisteredService</title>
<path fill="none" stroke="black" d="M579.11,-59.59C592.66,-62.55 607.36,-65.57 621,-68 677.71,-78.11 742.27,-86.98 790.78,-93.12"/>
<polygon fill="black" stroke="black" points="790.27,-96.59 800.63,-94.36 791.14,-89.64 790.27,-96.59"/>
<text xml:space="preserve" text-anchor="middle" x="702.75" y="-95.42" font-family="Times,serif" font-size="14.00">e_SerrviceDefinationNotExist</text>
</g>
<!-- v_end -->
<g id="node8" class="node">
<title>v_end</title>
<polygon fill="lightblue" stroke="black" points="893.38,-66 839.38,-66 839.38,-30 893.38,-30 893.38,-66"/>
<text xml:space="preserve" text-anchor="middle" x="866.38" y="-42.95" font-family="Times,serif" font-size="14.00">v_end</text>
</g>
<!-- v_ValidPayload&#45;&gt;v_end -->
<g id="edge9" class="edge">
<title>v_ValidPayload&#45;&gt;v_end</title>
<path fill="none" stroke="black" d="M579.21,-48C647.1,-48 766.99,-48 827.78,-48"/>
<polygon fill="black" stroke="black" points="827.6,-51.5 837.6,-48 827.6,-44.5 827.6,-51.5"/>
<text xml:space="preserve" text-anchor="middle" x="702.75" y="-51.2" font-family="Times,serif" font-size="14.00">e_SerrviceDefinationtExist</text>
</g>
<!-- v_QueryService -->
<g id="node6" class="node">
<title>v_QueryService</title>
<polygon fill="lightblue" stroke="black" points="1187,-93 1083.25,-93 1083.25,-57 1187,-57 1187,-93"/>
<text xml:space="preserve" text-anchor="middle" x="1135.12" y="-69.95" font-family="Times,serif" font-size="14.00">v_QueryService</text>
</g>
<!-- v_RegisteredService&#45;&gt;v_QueryService -->
<g id="edge6" class="edge">
<title>v_RegisteredService&#45;&gt;v_QueryService</title>
<path fill="none" stroke="black" d="M930.59,-95.6C973.21,-91.29 1029.19,-85.62 1071.66,-81.32"/>
<polygon fill="black" stroke="black" points="1071.87,-84.82 1081.47,-80.33 1071.17,-77.85 1071.87,-84.82"/>
<text xml:space="preserve" text-anchor="middle" x="1006.75" y="-96.47" font-family="Times,serif" font-size="14.00">e_SaveService</text>
</g>
<!-- v_SucessMesssage -->
<g id="node7" class="node">
<title>v_SucessMesssage</title>
<polygon fill="lightblue" stroke="black" points="1449,-36 1329.5,-36 1329.5,0 1449,0 1449,-36"/>
<text xml:space="preserve" text-anchor="middle" x="1389.25" y="-12.95" font-family="Times,serif" font-size="14.00">v_SucessMesssage</text>
</g>
<!-- v_QueryService&#45;&gt;v_SucessMesssage -->
<g id="edge7" class="edge">
<title>v_QueryService&#45;&gt;v_SucessMesssage</title>
<path fill="none" stroke="black" d="M1187.45,-63.4C1225.04,-54.9 1276.5,-43.26 1317.92,-33.9"/>
<polygon fill="black" stroke="black" points="1318.58,-37.34 1327.56,-31.72 1317.03,-30.51 1318.58,-37.34"/>
<text xml:space="preserve" text-anchor="middle" x="1258.25" y="-61.36" font-family="Times,serif" font-size="14.00">e_NewServiceExist</text>
</g>
<!-- v_SucessMesssage&#45;&gt;v_ValidPayload -->
<g id="edge8" class="edge">
<title>v_SucessMesssage&#45;&gt;v_ValidPayload</title>
<path fill="none" stroke="black" d="M1329.17,-16.48C1223.44,-14.17 994.95,-11.02 802.5,-21 729.39,-24.79 645.66,-33.75 590.36,-40.31"/>
<polygon fill="black" stroke="black" points="590.02,-36.83 580.51,-41.49 590.85,-43.78 590.02,-36.83"/>
<text xml:space="preserve" text-anchor="middle" x="1006.75" y="-18.97" font-family="Times,serif" font-size="14.00">e_back_ValidPayload</text>
</g>
</g>
</svg>
